<svg xmlns="http://www.w3.org/2000/svg" 
    xmlns:xlink="http://www.w3.org/1999/xlink" version="1.1" x="0px" y="0px" viewBox="0 0 100 100" style="enable-background:new 0 0 100 100;" xml:space="preserve">
    <path class="st0" d="M80.5,80.5h-60c-5.5,0-10-4.5-10-10v-12c4.4,0,8-3.6,8-8s-3.6-8-8-8v-12c0-5.5,4.5-10,10-10h60  c5.5,0,10,4.5,10,10v40C90.5,76,86,80.5,80.5,80.5z M86.5,30.5c0-3.3-2.7-6-6-6h-39v13h-4v-13h-17c-3.3,0-6,2.7-6,6v8.7  c4.7,1.6,8,6.1,8,11.3s-3.3,9.7-8,11.3v8.7c0,3.3,2.7,6,6,6h17v-13h4v13h39c3.3,0,6-2.7,6-6V30.5z M37.5,43.5h4v14h-4V43.5z"/>
</svg>